# This file was created with Minddesk Qubicle 3.0
# Get Qubicle at www.getqubicle.com

mtllib goblinweapon.mtl

vn 0.0 0.0 1.0
vn 0.0 0.0 -1.0
vn -1.0 0.0 0.0
vn 1.0 0.0 0.0
vn 0.0 1.0 0.0
vn 0.0 -1.0 0.0

v 1.00000 16.00000 -3.00000
v 1.00000 15.00000 -3.00000
v 1.00000 15.00000 -4.00000
v 1.00000 16.00000 -4.00000
v 0.00000 16.00000 -4.00000
v 0.00000 15.00000 -4.00000
v 0.00000 15.00000 -3.00000
v 0.00000 16.00000 -3.00000
v 1.00000 17.00000 -3.00000
v 1.00000 17.00000 -4.00000
v 0.00000 17.00000 -4.00000
v 0.00000 17.00000 -3.00000
v 1.00000 14.00000 -2.00000
v 1.00000 13.00000 -2.00000
v 1.00000 13.00000 -3.00000
v 1.00000 14.00000 -3.00000
v 0.00000 14.00000 -3.00000
v 0.00000 13.00000 -3.00000
v 0.00000 13.00000 -2.00000
v 0.00000 14.00000 -2.00000
v 1.00000 15.00000 -2.00000
v 0.00000 15.00000 -2.00000
v 1.00000 16.00000 -2.00000
v 0.00000 16.00000 -2.00000
v 1.00000 17.00000 -2.00000
v 0.00000 17.00000 -2.00000
v 1.00000 9.00000 -1.00000
v 1.00000 8.00000 -1.00000
v 1.00000 8.00000 -2.00000
v 1.00000 9.00000 -2.00000
v 0.00000 9.00000 -2.00000
v 0.00000 8.00000 -2.00000
v 0.00000 8.00000 -1.00000
v 0.00000 9.00000 -1.00000
v 1.00000 10.00000 -1.00000
v 1.00000 10.00000 -2.00000
v 0.00000 10.00000 -2.00000
v 0.00000 10.00000 -1.00000
v 1.00000 11.00000 -1.00000
v 1.00000 11.00000 -2.00000
v 0.00000 11.00000 -2.00000
v 0.00000 11.00000 -1.00000
v 1.00000 12.00000 -1.00000
v 1.00000 12.00000 -2.00000
v 0.00000 12.00000 -2.00000
v 0.00000 12.00000 -1.00000
v 1.00000 13.00000 -1.00000
v 0.00000 13.00000 -1.00000
v 1.00000 14.00000 -1.00000
v 0.00000 14.00000 -1.00000
v 1.00000 15.00000 -1.00000
v 0.00000 15.00000 -1.00000
v 1.00000 16.00000 -1.00000
v 0.00000 16.00000 -1.00000
v 1.00000 17.00000 -1.00000
v 0.00000 17.00000 -1.00000
v 1.00000 1.00000 0.00000
v 1.00000 0.00000 0.00000
v 1.00000 0.00000 -1.00000
v 1.00000 1.00000 -1.00000
v 0.00000 1.00000 -1.00000
v 0.00000 0.00000 -1.00000
v 0.00000 0.00000 0.00000
v 0.00000 1.00000 0.00000
v 1.00000 2.00000 0.00000
v 1.00000 2.00000 -1.00000
v 0.00000 2.00000 -1.00000
v 0.00000 2.00000 0.00000
v 1.00000 3.00000 0.00000
v 1.00000 3.00000 -1.00000
v 0.00000 3.00000 -1.00000
v 0.00000 3.00000 0.00000
v 1.00000 4.00000 0.00000
v 1.00000 4.00000 -1.00000
v 0.00000 4.00000 -1.00000
v 0.00000 4.00000 0.00000
v 1.00000 5.00000 0.00000
v 1.00000 5.00000 -1.00000
v 0.00000 5.00000 -1.00000
v 0.00000 5.00000 0.00000
v 1.00000 6.00000 0.00000
v 1.00000 6.00000 -1.00000
v 0.00000 6.00000 -1.00000
v 0.00000 6.00000 0.00000
v 1.00000 7.00000 0.00000
v 1.00000 7.00000 -1.00000
v 0.00000 7.00000 -1.00000
v 0.00000 7.00000 0.00000
v 1.00000 8.00000 0.00000
v 0.00000 8.00000 0.00000
v 1.00000 9.00000 0.00000
v 0.00000 9.00000 0.00000
v 1.00000 10.00000 0.00000
v 0.00000 10.00000 0.00000
v 1.00000 11.00000 0.00000
v 0.00000 11.00000 0.00000
v 1.00000 12.00000 0.00000
v 0.00000 12.00000 0.00000
v 1.00000 13.00000 0.00000
v 0.00000 13.00000 0.00000
v 1.00000 14.00000 0.00000
v 0.00000 14.00000 0.00000
v 1.00000 15.00000 0.00000
v 0.00000 15.00000 0.00000
v 1.00000 16.00000 0.00000
v 0.00000 16.00000 0.00000
v 1.00000 17.00000 0.00000
v 0.00000 17.00000 0.00000
v 1.00000 1.00000 1.00000
v 1.00000 0.00000 1.00000
v 0.00000 0.00000 1.00000
v 0.00000 1.00000 1.00000
v 1.00000 2.00000 1.00000
v 0.00000 2.00000 1.00000
v 1.00000 3.00000 1.00000
v 0.00000 3.00000 1.00000
v 1.00000 4.00000 1.00000
v 0.00000 4.00000 1.00000
v 1.00000 5.00000 1.00000
v 0.00000 5.00000 1.00000
v 1.00000 6.00000 1.00000
v 0.00000 6.00000 1.00000
v 1.00000 7.00000 1.00000
v 0.00000 7.00000 1.00000
v 1.00000 8.00000 1.00000
v 0.00000 8.00000 1.00000
v 1.00000 9.00000 1.00000
v 0.00000 9.00000 1.00000
v 1.00000 10.00000 1.00000
v 0.00000 10.00000 1.00000
v 1.00000 11.00000 1.00000
v 0.00000 11.00000 1.00000
v 1.00000 12.00000 1.00000
v 0.00000 12.00000 1.00000
v 1.00000 13.00000 1.00000
v 0.00000 13.00000 1.00000
v 1.00000 14.00000 1.00000
v 0.00000 14.00000 1.00000
v 1.00000 15.00000 1.00000
v 0.00000 15.00000 1.00000
v 1.00000 16.00000 1.00000
v 0.00000 16.00000 1.00000
v 1.00000 8.00000 2.00000
v 1.00000 7.00000 2.00000
v 0.00000 7.00000 2.00000
v 0.00000 8.00000 2.00000
v 1.00000 10.00000 2.00000
v 1.00000 9.00000 2.00000
v 0.00000 9.00000 2.00000
v 0.00000 10.00000 2.00000
v 1.00000 13.00000 2.00000
v 1.00000 12.00000 2.00000
v 0.00000 12.00000 2.00000
v 0.00000 13.00000 2.00000
v 1.00000 14.00000 2.00000
v 0.00000 14.00000 2.00000
v 1.00000 15.00000 2.00000
v 0.00000 15.00000 2.00000

vt 0.01563 0.68750
vt 0.01563 0.06250
vt 0.17188 0.06250
vt 0.17188 0.68750
vt 0.20313 0.68750
vt 0.20313 0.06250
vt 0.35938 0.06250
vt 0.35938 0.68750
vt 0.39063 0.68750
vt 0.39063 0.06250
vt 0.54688 0.06250
vt 0.54688 0.68750

g normalgoblinrighthand
usemtl goblinweapon_Material
f 1/1/4 2/2/4 3/3/4 4/4/4
f 5/1/3 6/2/3 7/3/3 8/4/3
f 7/1/6 6/2/6 3/3/6 2/4/6
f 4/1/2 3/2/2 6/3/2 5/4/2
f 9/5/4 1/6/4 4/7/4 10/8/4
f 11/5/3 5/6/3 8/7/3 12/8/3
f 11/5/5 12/6/5 9/7/5 10/8/5
f 10/5/2 4/6/2 5/7/2 11/8/2
f 13/1/4 14/2/4 15/3/4 16/4/4
f 17/1/3 18/2/3 19/3/3 20/4/3
f 19/1/6 18/2/6 15/3/6 14/4/6
f 16/1/2 15/2/2 18/3/2 17/4/2
f 21/1/4 13/2/4 16/3/4 2/4/4
f 7/1/3 17/2/3 20/3/3 22/4/3
f 2/1/2 16/2/2 17/3/2 7/4/2
f 23/1/4 21/2/4 2/3/4 1/4/4
f 8/1/3 7/2/3 22/3/3 24/4/3
f 25/5/4 23/6/4 1/7/4 9/8/4
f 12/5/3 8/6/3 24/7/3 26/8/3
f 12/5/5 26/6/5 25/7/5 9/8/5
f 27/1/4 28/2/4 29/3/4 30/4/4
f 31/1/3 32/2/3 33/3/3 34/4/3
f 33/1/6 32/2/6 29/3/6 28/4/6
f 30/1/2 29/2/2 32/3/2 31/4/2
f 35/1/4 27/2/4 30/3/4 36/4/4
f 37/1/3 31/2/3 34/3/3 38/4/3
f 36/1/2 30/2/2 31/3/2 37/4/2
f 39/1/4 35/2/4 36/3/4 40/4/4
f 41/1/3 37/2/3 38/3/3 42/4/3
f 40/1/2 36/2/2 37/3/2 41/4/2
f 43/1/4 39/2/4 40/3/4 44/4/4
f 45/1/3 41/2/3 42/3/3 46/4/3
f 44/1/2 40/2/2 41/3/2 45/4/2
f 47/1/4 43/2/4 44/3/4 14/4/4
f 19/1/3 45/2/3 46/3/3 48/4/3
f 14/1/2 44/2/2 45/3/2 19/4/2
f 49/1/4 47/2/4 14/3/4 13/4/4
f 20/1/3 19/2/3 48/3/3 50/4/3
f 51/1/4 49/2/4 13/3/4 21/4/4
f 22/1/3 20/2/3 50/3/3 52/4/3
f 53/5/4 51/6/4 21/7/4 23/8/4
f 24/5/3 22/6/3 52/7/3 54/8/3
f 55/5/4 53/6/4 23/7/4 25/8/4
f 26/5/3 24/6/3 54/7/3 56/8/3
f 26/5/5 56/6/5 55/7/5 25/8/5
f 57/9/4 58/10/4 59/11/4 60/12/4
f 61/9/3 62/10/3 63/11/3 64/12/3
f 63/9/6 62/10/6 59/11/6 58/12/6
f 60/9/2 59/10/2 62/11/2 61/12/2
f 65/9/4 57/10/4 60/11/4 66/12/4
f 67/9/3 61/10/3 64/11/3 68/12/3
f 66/9/2 60/10/2 61/11/2 67/12/2
f 69/9/4 65/10/4 66/11/4 70/12/4
f 71/9/3 67/10/3 68/11/3 72/12/3
f 70/9/2 66/10/2 67/11/2 71/12/2
f 73/9/4 69/10/4 70/11/4 74/12/4
f 75/9/3 71/10/3 72/11/3 76/12/3
f 74/9/2 70/10/2 71/11/2 75/12/2
f 77/9/4 73/10/4 74/11/4 78/12/4
f 79/9/3 75/10/3 76/11/3 80/12/3
f 78/9/2 74/10/2 75/11/2 79/12/2
f 81/9/4 77/10/4 78/11/4 82/12/4
f 83/9/3 79/10/3 80/11/3 84/12/3
f 82/9/2 78/10/2 79/11/2 83/12/2
f 85/9/4 81/10/4 82/11/4 86/12/4
f 87/9/3 83/10/3 84/11/3 88/12/3
f 86/9/2 82/10/2 83/11/2 87/12/2
f 89/1/4 85/2/4 86/3/4 28/4/4
f 33/1/3 87/2/3 88/3/3 90/4/3
f 28/1/2 86/2/2 87/3/2 33/4/2
f 91/1/4 89/2/4 28/3/4 27/4/4
f 34/1/3 33/2/3 90/3/3 92/4/3
f 93/1/4 91/2/4 27/3/4 35/4/4
f 38/1/3 34/2/3 92/3/3 94/4/3
f 95/1/4 93/2/4 35/3/4 39/4/4
f 42/1/3 38/2/3 94/3/3 96/4/3
f 97/1/4 95/2/4 39/3/4 43/4/4
f 46/1/3 42/2/3 96/3/3 98/4/3
f 99/1/4 97/2/4 43/3/4 47/4/4
f 48/1/3 46/2/3 98/3/3 100/4/3
f 101/1/4 99/2/4 47/3/4 49/4/4
f 50/1/3 48/2/3 100/3/3 102/4/3
f 103/5/4 101/6/4 49/7/4 51/8/4
f 52/5/3 50/6/3 102/7/3 104/8/3
f 105/5/4 103/6/4 51/7/4 53/8/4
f 54/5/3 52/6/3 104/7/3 106/8/3
f 107/5/4 105/6/4 53/7/4 55/8/4
f 56/5/3 54/6/3 106/7/3 108/8/3
f 56/5/5 108/6/5 107/7/5 55/8/5
f 108/5/1 106/6/1 105/7/1 107/8/1
f 109/9/4 110/10/4 58/11/4 57/12/4
f 64/9/3 63/10/3 111/11/3 112/12/3
f 111/9/6 63/10/6 58/11/6 110/12/6
f 112/9/1 111/10/1 110/11/1 109/12/1
f 113/9/4 109/10/4 57/11/4 65/12/4
f 68/9/3 64/10/3 112/11/3 114/12/3
f 114/9/1 112/10/1 109/11/1 113/12/1
f 115/9/4 113/10/4 65/11/4 69/12/4
f 72/9/3 68/10/3 114/11/3 116/12/3
f 116/9/1 114/10/1 113/11/1 115/12/1
f 117/9/4 115/10/4 69/11/4 73/12/4
f 76/9/3 72/10/3 116/11/3 118/12/3
f 118/9/1 116/10/1 115/11/1 117/12/1
f 119/9/4 117/10/4 73/11/4 77/12/4
f 80/9/3 76/10/3 118/11/3 120/12/3
f 120/9/1 118/10/1 117/11/1 119/12/1
f 121/9/4 119/10/4 77/11/4 81/12/4
f 84/9/3 80/10/3 120/11/3 122/12/3
f 122/9/1 120/10/1 119/11/1 121/12/1
f 123/9/4 121/10/4 81/11/4 85/12/4
f 88/9/3 84/10/3 122/11/3 124/12/3
f 124/9/1 122/10/1 121/11/1 123/12/1
f 125/5/4 123/6/4 85/7/4 89/8/4
f 90/5/3 88/6/3 124/7/3 126/8/3
f 127/5/4 125/6/4 89/7/4 91/8/4
f 92/5/3 90/6/3 126/7/3 128/8/3
f 128/5/1 126/6/1 125/7/1 127/8/1
f 129/5/4 127/6/4 91/7/4 93/8/4
f 94/5/3 92/6/3 128/7/3 130/8/3
f 131/5/4 129/6/4 93/7/4 95/8/4
f 96/5/3 94/6/3 130/7/3 132/8/3
f 132/5/1 130/6/1 129/7/1 131/8/1
f 133/5/4 131/6/4 95/7/4 97/8/4
f 98/5/3 96/6/3 132/7/3 134/8/3
f 134/5/1 132/6/1 131/7/1 133/8/1
f 135/5/4 133/6/4 97/7/4 99/8/4
f 100/5/3 98/6/3 134/7/3 136/8/3
f 137/5/4 135/6/4 99/7/4 101/8/4
f 102/5/3 100/6/3 136/7/3 138/8/3
f 139/5/4 137/6/4 101/7/4 103/8/4
f 104/5/3 102/6/3 138/7/3 140/8/3
f 141/5/4 139/6/4 103/7/4 105/8/4
f 106/5/3 104/6/3 140/7/3 142/8/3
f 106/5/5 142/6/5 141/7/5 105/8/5
f 142/5/1 140/6/1 139/7/1 141/8/1
f 143/5/4 144/6/4 123/7/4 125/8/4
f 126/5/3 124/6/3 145/7/3 146/8/3
f 126/5/5 146/6/5 143/7/5 125/8/5
f 145/5/6 124/6/6 123/7/6 144/8/6
f 146/5/1 145/6/1 144/7/1 143/8/1
f 147/5/4 148/6/4 127/7/4 129/8/4
f 130/5/3 128/6/3 149/7/3 150/8/3
f 130/5/5 150/6/5 147/7/5 129/8/5
f 149/5/6 128/6/6 127/7/6 148/8/6
f 150/5/1 149/6/1 148/7/1 147/8/1
f 151/5/4 152/6/4 133/7/4 135/8/4
f 136/5/3 134/6/3 153/7/3 154/8/3
f 153/5/6 134/6/6 133/7/6 152/8/6
f 154/5/1 153/6/1 152/7/1 151/8/1
f 155/5/4 151/6/4 135/7/4 137/8/4
f 138/5/3 136/6/3 154/7/3 156/8/3
f 156/5/1 154/6/1 151/7/1 155/8/1
f 157/5/4 155/6/4 137/7/4 139/8/4
f 140/5/3 138/6/3 156/7/3 158/8/3
f 140/5/5 158/6/5 157/7/5 139/8/5
f 158/5/1 156/6/1 155/7/1 157/8/1
